<mxfile host="app.diagrams.net" modified="2024-02-16T05:18:43.569Z" agent="Mozilla/5.0 (Windows NT 10.0; Win64; x64; rv:122.0) Gecko/20100101 Firefox/122.0" etag="4VoKh1kVeddxCOJCHVhN" version="23.1.3" type="device">
  <diagram name="Page-1" id="qnpC6LDHLoCFqHSpHIST">
    <mxGraphModel dx="989" dy="534" grid="1" gridSize="10" guides="1" tooltips="1" connect="1" arrows="1" fold="1" page="1" pageScale="1" pageWidth="850" pageHeight="1100" math="0" shadow="0">
      <root>
        <mxCell id="0" />
        <mxCell id="1" parent="0" />
        <mxCell id="827ukPJuZmtEK_uofxUm-1" value="Пользователь" style="rounded=0;whiteSpace=wrap;html=1;" vertex="1" parent="1">
          <mxGeometry x="160" y="310" width="120" height="60" as="geometry" />
        </mxCell>
        <mxCell id="827ukPJuZmtEK_uofxUm-2" value="Водитель" style="rounded=0;whiteSpace=wrap;html=1;" vertex="1" parent="1">
          <mxGeometry x="630" y="280" width="120" height="60" as="geometry" />
        </mxCell>
        <mxCell id="827ukPJuZmtEK_uofxUm-54" value="" style="edgeStyle=orthogonalEdgeStyle;rounded=0;orthogonalLoop=1;jettySize=auto;html=1;endArrow=none;endFill=0;" edge="1" parent="1" source="827ukPJuZmtEK_uofxUm-3" target="827ukPJuZmtEK_uofxUm-53">
          <mxGeometry relative="1" as="geometry" />
        </mxCell>
        <mxCell id="827ukPJuZmtEK_uofxUm-103" value="N" style="edgeLabel;html=1;align=center;verticalAlign=middle;resizable=0;points=[];" vertex="1" connectable="0" parent="827ukPJuZmtEK_uofxUm-54">
          <mxGeometry x="0.7713" y="-1" relative="1" as="geometry">
            <mxPoint as="offset" />
          </mxGeometry>
        </mxCell>
        <mxCell id="827ukPJuZmtEK_uofxUm-57" value="" style="edgeStyle=orthogonalEdgeStyle;rounded=0;orthogonalLoop=1;jettySize=auto;html=1;" edge="1" parent="1" source="827ukPJuZmtEK_uofxUm-3" target="827ukPJuZmtEK_uofxUm-56">
          <mxGeometry relative="1" as="geometry" />
        </mxCell>
        <mxCell id="827ukPJuZmtEK_uofxUm-59" style="edgeStyle=orthogonalEdgeStyle;rounded=0;orthogonalLoop=1;jettySize=auto;html=1;exitX=1;exitY=0;exitDx=0;exitDy=0;" edge="1" parent="1" source="827ukPJuZmtEK_uofxUm-3" target="827ukPJuZmtEK_uofxUm-58">
          <mxGeometry relative="1" as="geometry" />
        </mxCell>
        <mxCell id="827ukPJuZmtEK_uofxUm-3" value="Заказ" style="rounded=0;whiteSpace=wrap;html=1;" vertex="1" parent="1">
          <mxGeometry x="400" y="190" width="120" height="60" as="geometry" />
        </mxCell>
        <mxCell id="827ukPJuZmtEK_uofxUm-4" value="Машина" style="rounded=0;whiteSpace=wrap;html=1;" vertex="1" parent="1">
          <mxGeometry x="640" y="468.97" width="100" height="60" as="geometry" />
        </mxCell>
        <mxCell id="827ukPJuZmtEK_uofxUm-5" value="Местоположение" style="rounded=0;whiteSpace=wrap;html=1;" vertex="1" parent="1">
          <mxGeometry x="185" y="468.97" width="120" height="60" as="geometry" />
        </mxCell>
        <mxCell id="827ukPJuZmtEK_uofxUm-6" value="&lt;div&gt;Делает&lt;/div&gt;" style="rhombus;whiteSpace=wrap;html=1;" vertex="1" parent="1">
          <mxGeometry x="170" y="180" width="100" height="90" as="geometry" />
        </mxCell>
        <mxCell id="827ukPJuZmtEK_uofxUm-7" value="Берёт заказ" style="rhombus;whiteSpace=wrap;html=1;" vertex="1" parent="1">
          <mxGeometry x="650" y="180" width="100" height="80" as="geometry" />
        </mxCell>
        <mxCell id="827ukPJuZmtEK_uofxUm-8" value="Имеет" style="rhombus;whiteSpace=wrap;html=1;" vertex="1" parent="1">
          <mxGeometry x="650" y="360" width="80" height="80" as="geometry" />
        </mxCell>
        <mxCell id="827ukPJuZmtEK_uofxUm-9" value="&lt;div&gt;Начало поездки&lt;/div&gt;&lt;div&gt;в&lt;br&gt;&lt;/div&gt;" style="rhombus;whiteSpace=wrap;html=1;" vertex="1" parent="1">
          <mxGeometry x="295" y="370" width="80" height="80" as="geometry" />
        </mxCell>
        <mxCell id="827ukPJuZmtEK_uofxUm-18" value="" style="endArrow=none;html=1;rounded=0;exitX=0.5;exitY=0;exitDx=0;exitDy=0;entryX=0.5;entryY=1;entryDx=0;entryDy=0;" edge="1" parent="1" source="827ukPJuZmtEK_uofxUm-1" target="827ukPJuZmtEK_uofxUm-6">
          <mxGeometry width="50" height="50" relative="1" as="geometry">
            <mxPoint x="400" y="430" as="sourcePoint" />
            <mxPoint x="450" y="380" as="targetPoint" />
          </mxGeometry>
        </mxCell>
        <mxCell id="827ukPJuZmtEK_uofxUm-27" value="1" style="edgeLabel;html=1;align=center;verticalAlign=middle;resizable=0;points=[];" vertex="1" connectable="0" parent="827ukPJuZmtEK_uofxUm-18">
          <mxGeometry x="0.6667" y="-2" relative="1" as="geometry">
            <mxPoint as="offset" />
          </mxGeometry>
        </mxCell>
        <mxCell id="827ukPJuZmtEK_uofxUm-19" value="" style="endArrow=none;html=1;rounded=0;exitX=0;exitY=0.5;exitDx=0;exitDy=0;entryX=1;entryY=0.5;entryDx=0;entryDy=0;" edge="1" parent="1" source="827ukPJuZmtEK_uofxUm-3" target="827ukPJuZmtEK_uofxUm-6">
          <mxGeometry width="50" height="50" relative="1" as="geometry">
            <mxPoint x="220" y="390" as="sourcePoint" />
            <mxPoint x="220" y="270" as="targetPoint" />
          </mxGeometry>
        </mxCell>
        <mxCell id="827ukPJuZmtEK_uofxUm-28" value="&lt;div&gt;N&lt;/div&gt;" style="edgeLabel;html=1;align=center;verticalAlign=middle;resizable=0;points=[];" vertex="1" connectable="0" parent="827ukPJuZmtEK_uofxUm-19">
          <mxGeometry x="-0.7759" relative="1" as="geometry">
            <mxPoint as="offset" />
          </mxGeometry>
        </mxCell>
        <mxCell id="827ukPJuZmtEK_uofxUm-20" value="" style="endArrow=none;html=1;rounded=0;exitX=1;exitY=0.5;exitDx=0;exitDy=0;entryX=0;entryY=0.5;entryDx=0;entryDy=0;" edge="1" parent="1" source="827ukPJuZmtEK_uofxUm-3" target="827ukPJuZmtEK_uofxUm-7">
          <mxGeometry width="50" height="50" relative="1" as="geometry">
            <mxPoint x="395" y="230" as="sourcePoint" />
            <mxPoint x="260" y="230" as="targetPoint" />
          </mxGeometry>
        </mxCell>
        <mxCell id="827ukPJuZmtEK_uofxUm-39" value="N" style="edgeLabel;html=1;align=center;verticalAlign=middle;resizable=0;points=[];" vertex="1" connectable="0" parent="827ukPJuZmtEK_uofxUm-20">
          <mxGeometry x="-0.9055" y="1" relative="1" as="geometry">
            <mxPoint as="offset" />
          </mxGeometry>
        </mxCell>
        <mxCell id="827ukPJuZmtEK_uofxUm-21" value="" style="endArrow=none;html=1;rounded=0;exitX=0.5;exitY=0;exitDx=0;exitDy=0;entryX=0.5;entryY=1;entryDx=0;entryDy=0;" edge="1" parent="1" source="827ukPJuZmtEK_uofxUm-2" target="827ukPJuZmtEK_uofxUm-7">
          <mxGeometry width="50" height="50" relative="1" as="geometry">
            <mxPoint x="405" y="240" as="sourcePoint" />
            <mxPoint x="270" y="240" as="targetPoint" />
          </mxGeometry>
        </mxCell>
        <mxCell id="827ukPJuZmtEK_uofxUm-38" value="&lt;div&gt;1&lt;/div&gt;" style="edgeLabel;html=1;align=center;verticalAlign=middle;resizable=0;points=[];" vertex="1" connectable="0" parent="827ukPJuZmtEK_uofxUm-21">
          <mxGeometry x="0.7857" relative="1" as="geometry">
            <mxPoint x="1" y="8" as="offset" />
          </mxGeometry>
        </mxCell>
        <mxCell id="827ukPJuZmtEK_uofxUm-22" value="" style="endArrow=none;html=1;rounded=0;exitX=0.5;exitY=1;exitDx=0;exitDy=0;" edge="1" parent="1">
          <mxGeometry width="50" height="50" relative="1" as="geometry">
            <mxPoint x="375" y="290" as="sourcePoint" />
            <mxPoint x="375" y="290" as="targetPoint" />
          </mxGeometry>
        </mxCell>
        <mxCell id="827ukPJuZmtEK_uofxUm-24" value="" style="endArrow=none;html=1;rounded=0;exitX=0.5;exitY=0;exitDx=0;exitDy=0;edgeStyle=orthogonalEdgeStyle;" edge="1" parent="1" source="827ukPJuZmtEK_uofxUm-5" target="827ukPJuZmtEK_uofxUm-9">
          <mxGeometry width="50" height="50" relative="1" as="geometry">
            <mxPoint x="435" y="270" as="sourcePoint" />
            <mxPoint x="300" y="270" as="targetPoint" />
          </mxGeometry>
        </mxCell>
        <mxCell id="827ukPJuZmtEK_uofxUm-34" value="1" style="edgeLabel;html=1;align=center;verticalAlign=middle;resizable=0;points=[];" vertex="1" connectable="0" parent="827ukPJuZmtEK_uofxUm-24">
          <mxGeometry x="-0.3486" y="2" relative="1" as="geometry">
            <mxPoint x="-4" y="-11" as="offset" />
          </mxGeometry>
        </mxCell>
        <mxCell id="827ukPJuZmtEK_uofxUm-25" value="" style="endArrow=none;html=1;rounded=0;exitX=0.5;exitY=0;exitDx=0;exitDy=0;entryX=0.5;entryY=1;entryDx=0;entryDy=0;" edge="1" parent="1" source="827ukPJuZmtEK_uofxUm-8" target="827ukPJuZmtEK_uofxUm-2">
          <mxGeometry width="50" height="50" relative="1" as="geometry">
            <mxPoint x="445" y="280" as="sourcePoint" />
            <mxPoint x="310" y="280" as="targetPoint" />
          </mxGeometry>
        </mxCell>
        <mxCell id="827ukPJuZmtEK_uofxUm-40" value="1" style="edgeLabel;html=1;align=center;verticalAlign=middle;resizable=0;points=[];" vertex="1" connectable="0" parent="827ukPJuZmtEK_uofxUm-25">
          <mxGeometry x="-0.4743" y="-2" relative="1" as="geometry">
            <mxPoint as="offset" />
          </mxGeometry>
        </mxCell>
        <mxCell id="827ukPJuZmtEK_uofxUm-26" value="" style="endArrow=none;html=1;rounded=0;exitX=0.5;exitY=1;exitDx=0;exitDy=0;entryX=0.5;entryY=0;entryDx=0;entryDy=0;" edge="1" parent="1" source="827ukPJuZmtEK_uofxUm-8" target="827ukPJuZmtEK_uofxUm-4">
          <mxGeometry width="50" height="50" relative="1" as="geometry">
            <mxPoint x="455" y="290" as="sourcePoint" />
            <mxPoint x="320" y="290" as="targetPoint" />
          </mxGeometry>
        </mxCell>
        <mxCell id="827ukPJuZmtEK_uofxUm-41" value="N" style="edgeLabel;html=1;align=center;verticalAlign=middle;resizable=0;points=[];" vertex="1" connectable="0" parent="827ukPJuZmtEK_uofxUm-26">
          <mxGeometry x="0.4857" y="1" relative="1" as="geometry">
            <mxPoint as="offset" />
          </mxGeometry>
        </mxCell>
        <mxCell id="827ukPJuZmtEK_uofxUm-53" value="&lt;div&gt;Конец поездки&lt;/div&gt;&lt;div&gt;в&lt;br&gt;&lt;/div&gt;" style="rhombus;whiteSpace=wrap;html=1;rounded=0;" vertex="1" parent="1">
          <mxGeometry x="405" y="468.97" width="110" height="80" as="geometry" />
        </mxCell>
        <mxCell id="827ukPJuZmtEK_uofxUm-55" style="edgeStyle=orthogonalEdgeStyle;rounded=0;orthogonalLoop=1;jettySize=auto;html=1;entryX=1.014;entryY=0.657;entryDx=0;entryDy=0;entryPerimeter=0;endArrow=none;endFill=0;" edge="1" parent="1" source="827ukPJuZmtEK_uofxUm-53" target="827ukPJuZmtEK_uofxUm-5">
          <mxGeometry relative="1" as="geometry" />
        </mxCell>
        <mxCell id="827ukPJuZmtEK_uofxUm-104" value="1" style="edgeLabel;html=1;align=center;verticalAlign=middle;resizable=0;points=[];" vertex="1" connectable="0" parent="827ukPJuZmtEK_uofxUm-55">
          <mxGeometry x="0.7711" y="-1" relative="1" as="geometry">
            <mxPoint x="12" y="2" as="offset" />
          </mxGeometry>
        </mxCell>
        <mxCell id="827ukPJuZmtEK_uofxUm-56" value="Стоимость" style="ellipse;whiteSpace=wrap;html=1;" vertex="1" parent="1">
          <mxGeometry x="400" y="40" width="120" height="80" as="geometry" />
        </mxCell>
        <mxCell id="827ukPJuZmtEK_uofxUm-58" value="Дата поездки" style="ellipse;whiteSpace=wrap;html=1;" vertex="1" parent="1">
          <mxGeometry x="530" y="50" width="120" height="80" as="geometry" />
        </mxCell>
        <mxCell id="827ukPJuZmtEK_uofxUm-108" value="Доп. детали&lt;br&gt;(Категория,детское кресло, кол-во мест)" style="ellipse;whiteSpace=wrap;html=1;" vertex="1" parent="1">
          <mxGeometry x="210" y="50" width="165" height="90" as="geometry" />
        </mxCell>
        <mxCell id="827ukPJuZmtEK_uofxUm-109" style="edgeStyle=orthogonalEdgeStyle;rounded=0;orthogonalLoop=1;jettySize=auto;html=1;exitX=0.25;exitY=0;exitDx=0;exitDy=0;entryX=0.56;entryY=0.986;entryDx=0;entryDy=0;entryPerimeter=0;endArrow=none;endFill=0;" edge="1" parent="1" source="827ukPJuZmtEK_uofxUm-3" target="827ukPJuZmtEK_uofxUm-108">
          <mxGeometry relative="1" as="geometry" />
        </mxCell>
        <mxCell id="827ukPJuZmtEK_uofxUm-112" value="" style="endArrow=none;startArrow=none;html=1;rounded=0;edgeStyle=orthogonalEdgeStyle;endFill=0;startFill=0;" edge="1" parent="1" source="827ukPJuZmtEK_uofxUm-9" target="827ukPJuZmtEK_uofxUm-3">
          <mxGeometry width="50" height="50" relative="1" as="geometry">
            <mxPoint x="450" y="340" as="sourcePoint" />
            <mxPoint x="500" y="290" as="targetPoint" />
            <Array as="points">
              <mxPoint x="430" y="400" />
            </Array>
          </mxGeometry>
        </mxCell>
        <mxCell id="827ukPJuZmtEK_uofxUm-113" value="N" style="edgeLabel;html=1;align=center;verticalAlign=middle;resizable=0;points=[];" vertex="1" connectable="0" parent="827ukPJuZmtEK_uofxUm-112">
          <mxGeometry x="-0.8323" y="-3" relative="1" as="geometry">
            <mxPoint x="2" y="-3" as="offset" />
          </mxGeometry>
        </mxCell>
      </root>
    </mxGraphModel>
  </diagram>
</mxfile>
